<svg xmlns="http://www.w3.org/2000/svg" xmlns:xlink="http://www.w3.org/1999/xlink" width="1500" zoomAndPan="magnify" viewBox="0 0 1125 374.999991" height="500" preserveAspectRatio="xMidYMid meet" version="1.0"><defs><g/><clipPath id="e77a4fcab8"><path d="M 173 0 L 1103.960938 0 L 1103.960938 233 L 173 233 Z M 173 0 " clip-rule="nonzero"/></clipPath><clipPath id="dc660b963f"><rect x="0" width="931" y="0" height="233"/></clipPath><clipPath id="f70d9b12c7"><path d="M 0.199219 138 L 503 138 L 503 375 L 0.199219 375 Z M 0.199219 138 " clip-rule="nonzero"/></clipPath><clipPath id="3e8d99ad9f"><rect x="0" width="503" y="0" height="237"/></clipPath><clipPath id="4622364b81"><path d="M 8.582031 49.722656 L 140.367188 49.722656 L 140.367188 181.503906 L 8.582031 181.503906 Z M 8.582031 49.722656 " clip-rule="nonzero"/></clipPath><clipPath id="b9e7d60a09"><rect x="0" width="1104" y="0" height="375"/></clipPath></defs><g transform="matrix(1, 0, 0, 1, 7, 0)"><g clip-path="url(#b9e7d60a09)"><g clip-path="url(#e77a4fcab8)"><g transform="matrix(1, 0, 0, 1, 173, 0)"><g clip-path="url(#dc660b963f)"><g fill="#f14902" fill-opacity="0.1804"><g transform="translate(4.157633, 184.571326)"><g><path d="M 100.78125 -91.109375 C 97.28125 -106.710938 87.269531 -114.515625 70.75 -114.515625 C 60.488281 -114.515625 52.316406 -110.335938 46.234375 -101.984375 C 40.160156 -93.628906 37.125 -82.019531 37.125 -67.15625 C 37.125 -53.21875 40.070312 -42.023438 45.96875 -33.578125 C 51.863281 -25.128906 60.125 -20.90625 70.75 -20.90625 C 86.96875 -20.90625 96.976562 -29.414062 100.78125 -46.4375 L 129.0625 -46.4375 C 127.039062 -32.550781 120.960938 -20.738281 110.828125 -11 C 100.691406 -1.269531 87.148438 3.59375 70.203125 3.59375 C 51.285156 3.59375 36.238281 -2.65625 25.0625 -15.15625 C 13.882812 -27.65625 8.296875 -45.113281 8.296875 -67.53125 C 8.296875 -88.957031 13.851562 -106.226562 24.96875 -119.34375 C 36.082031 -132.457031 51.28125 -139.015625 70.5625 -139.015625 C 87.457031 -139.015625 101.109375 -134.453125 111.515625 -125.328125 C 121.921875 -116.210938 127.769531 -104.804688 129.0625 -91.109375 Z M 100.78125 -91.109375 "/></g></g></g><g fill="#f14902" fill-opacity="0.1804"><g transform="translate(132.275228, 184.571326)"><g><path d="M 39.34375 0 L 12.890625 0 L 12.890625 -135.421875 L 39.34375 -135.421875 Z M 39.34375 0 "/></g></g></g><g fill="#f14902" fill-opacity="0.1804"><g transform="translate(176.201388, 184.571326)"><g><path d="M 102.8125 0 L 77.5625 0 L 77.5625 -14.1875 L 77.203125 -14.1875 C 70.503906 -2.945312 60.304688 2.671875 46.609375 2.671875 C 35.984375 2.671875 27.628906 -0.457031 21.546875 -6.71875 C 15.472656 -12.988281 12.4375 -22.203125 12.4375 -34.359375 L 12.4375 -100.421875 L 38.875 -100.421875 L 38.875 -38.140625 C 38.875 -31.753906 40.347656 -27.070312 43.296875 -24.09375 C 46.242188 -21.113281 50.484375 -19.625 56.015625 -19.625 C 61.972656 -19.625 66.851562 -21.601562 70.65625 -25.5625 C 74.46875 -29.519531 76.375 -35.15625 76.375 -42.46875 L 76.375 -100.421875 L 102.8125 -100.421875 Z M 102.8125 0 "/></g></g></g><g fill="#f14902" fill-opacity="0.1804"><g transform="translate(283.59352, 184.571326)"><g><path d="M 83.28125 -49.46875 C 83.28125 -59.300781 81.296875 -66.875 77.328125 -72.1875 C 73.367188 -77.5 67.859375 -80.15625 60.796875 -80.15625 C 53.179688 -80.15625 47.5 -77.390625 43.75 -71.859375 C 40.007812 -66.328125 38.140625 -58.34375 38.140625 -47.90625 C 38.140625 -38.75 40.242188 -31.648438 44.453125 -26.609375 C 48.660156 -21.578125 54.359375 -19.0625 61.546875 -19.0625 C 67.929688 -19.0625 73.148438 -21.78125 77.203125 -27.21875 C 81.253906 -32.65625 83.28125 -40.070312 83.28125 -49.46875 Z M 39.34375 -87.328125 L 39.703125 -87.328125 C 46.210938 -97.773438 55.882812 -103 68.71875 -103 C 80.882812 -103 90.878906 -98.375 98.703125 -89.125 C 106.535156 -79.882812 110.453125 -67.28125 110.453125 -51.3125 C 110.453125 -35.28125 106.734375 -22.273438 99.296875 -12.296875 C 91.867188 -2.316406 81.492188 2.671875 68.171875 2.671875 C 54.960938 2.671875 45.289062 -2.425781 39.15625 -12.625 L 38.78125 -12.625 L 38.78125 0 L 12.890625 0 L 12.890625 -135.421875 L 39.34375 -135.421875 Z M 39.34375 -87.328125 "/></g></g></g><g fill="#f14902" fill-opacity="0.1804"><g transform="translate(392.64369, 184.571326)"><g><path d="M 35 -41.734375 C 35 -35.035156 37.472656 -29.707031 42.421875 -25.75 C 47.367188 -21.789062 54.445312 -19.8125 63.65625 -19.8125 C 72.875 -19.8125 79.890625 -21.300781 84.703125 -24.28125 C 89.523438 -27.257812 91.9375 -31.632812 91.9375 -37.40625 C 91.9375 -40.84375 90.691406 -43.816406 88.203125 -46.328125 C 85.722656 -48.847656 79.8125 -51.21875 70.46875 -53.4375 L 47.4375 -58.78125 C 32.882812 -62.21875 22.984375 -66.898438 17.734375 -72.828125 C 12.484375 -78.753906 9.859375 -86.9375 9.859375 -97.375 C 9.859375 -109.59375 14.203125 -119.585938 22.890625 -127.359375 C 31.578125 -135.128906 44.613281 -139.015625 62 -139.015625 C 79.257812 -139.015625 92.359375 -134.65625 101.296875 -125.9375 C 110.234375 -117.21875 114.726562 -106.988281 114.78125 -95.25 L 87.609375 -95.25 C 86.992188 -101.882812 84.414062 -106.9375 79.875 -110.40625 C 75.332031 -113.875 68.664062 -115.609375 59.875 -115.609375 C 52.8125 -115.609375 47.113281 -114.148438 42.78125 -111.234375 C 38.457031 -108.316406 36.296875 -104.375 36.296875 -99.40625 C 36.296875 -95.96875 37.25 -93.109375 39.15625 -90.828125 C 41.0625 -88.554688 44.128906 -86.898438 48.359375 -85.859375 L 84.578125 -76.921875 C 97.648438 -73.734375 106.675781 -69.144531 111.65625 -63.15625 C 116.632812 -57.164062 119.125 -49.6875 119.125 -40.71875 C 119.125 -25.976562 114.007812 -14.90625 103.78125 -7.5 C 93.550781 -0.101562 80.882812 3.59375 65.78125 3.59375 C 46.25 3.59375 31.707031 -0.566406 22.15625 -8.890625 C 12.601562 -17.210938 7.828125 -28.160156 7.828125 -41.734375 Z M 35 -41.734375 "/></g></g></g><g fill="#f14902" fill-opacity="0.1804"><g transform="translate(510.813064, 184.571326)"><g><path d="M 70.46875 -48.640625 C 67.21875 -46.367188 60.894531 -44.554688 51.5 -43.203125 C 43.632812 -42.097656 38.488281 -40.332031 36.0625 -37.90625 C 33.632812 -35.476562 32.421875 -32.269531 32.421875 -28.28125 C 32.421875 -24.289062 33.710938 -21.28125 36.296875 -19.25 C 38.878906 -17.226562 41.953125 -16.21875 45.515625 -16.21875 C 52.265625 -16.21875 58.109375 -18.101562 63.046875 -21.875 C 67.992188 -25.65625 70.46875 -30.367188 70.46875 -36.015625 Z M 96.265625 -19.625 C 96.265625 -15.019531 96.691406 -11.410156 97.546875 -8.796875 C 98.410156 -6.179688 99.921875 -4.570312 102.078125 -3.96875 L 102.078125 0 L 73.796875 0 C 72.566406 -3.375 71.707031 -7.335938 71.21875 -11.890625 C 62.613281 -2.179688 51.429688 2.671875 37.671875 2.671875 C 28.160156 2.671875 20.5 0.03125 14.6875 -5.25 C 8.882812 -10.53125 5.984375 -17.65625 5.984375 -26.625 C 5.984375 -35.21875 8.515625 -42.304688 13.578125 -47.890625 C 18.648438 -53.484375 26.222656 -57.019531 36.296875 -58.5 L 60.984375 -62.09375 C 64.359375 -62.582031 66.78125 -63.515625 68.25 -64.890625 C 69.726562 -66.273438 70.46875 -68.046875 70.46875 -70.203125 C 70.46875 -74.066406 69.054688 -76.992188 66.234375 -78.984375 C 63.410156 -80.984375 59.082031 -81.984375 53.25 -81.984375 C 47.164062 -81.984375 42.726562 -80.878906 39.9375 -78.671875 C 37.144531 -76.460938 35.410156 -72.867188 34.734375 -67.890625 L 9.21875 -67.890625 C 10.5 -80.117188 14.65625 -89.023438 21.6875 -94.609375 C 28.726562 -100.203125 39.953125 -103 55.359375 -103 C 67.765625 -103 77.679688 -100.507812 85.109375 -95.53125 C 92.546875 -90.5625 96.265625 -83.375 96.265625 -73.96875 Z M 96.265625 -19.625 "/></g></g></g><g fill="#f14902" fill-opacity="0.1804"><g transform="translate(610.283464, 184.571326)"><g><path d="M 66.046875 0 L 38.328125 0 L 2.296875 -100.421875 L 31.6875 -100.421875 L 52.421875 -26.4375 L 52.78125 -26.4375 L 74.15625 -100.421875 L 102.265625 -100.421875 Z M 66.046875 0 "/></g></g></g><g fill="#f14902" fill-opacity="0.1804"><g transform="translate(706.253564, 184.571326)"><g><path d="M 81.8125 -50.203125 C 81.8125 -59.785156 79.828125 -67.28125 75.859375 -72.6875 C 71.898438 -78.09375 65.929688 -80.796875 57.953125 -80.796875 C 50.515625 -80.796875 44.675781 -78.257812 40.4375 -73.1875 C 36.207031 -68.125 34.09375 -60.460938 34.09375 -50.203125 C 34.09375 -40.128906 36.148438 -32.515625 40.265625 -27.359375 C 44.378906 -22.203125 50.273438 -19.625 57.953125 -19.625 C 65.867188 -19.625 71.820312 -22.296875 75.8125 -27.640625 C 79.8125 -32.984375 81.8125 -40.503906 81.8125 -50.203125 Z M 108.984375 -50.203125 C 108.984375 -33.804688 104.269531 -20.894531 94.84375 -11.46875 C 85.414062 -2.039062 73.117188 2.671875 57.953125 2.671875 C 43.023438 2.671875 30.785156 -2.007812 21.234375 -11.375 C 11.679688 -20.738281 6.90625 -33.679688 6.90625 -50.203125 C 6.90625 -66.847656 11.679688 -79.804688 21.234375 -89.078125 C 30.785156 -98.359375 43.023438 -103 57.953125 -103 C 73.242188 -103 85.570312 -98.253906 94.9375 -88.765625 C 104.300781 -79.273438 108.984375 -66.421875 108.984375 -50.203125 Z M 108.984375 -50.203125 "/></g></g></g><g fill="#f14902" fill-opacity="0.1804"><g transform="translate(813.829923, 184.571326)"><g><path d="M 39.34375 -112.296875 L 12.890625 -112.296875 L 12.890625 -136.8125 L 39.34375 -136.8125 Z M 39.34375 -100.421875 L 39.34375 0 L 12.890625 0 L 12.890625 -100.421875 Z M 39.34375 -100.421875 "/></g></g></g><g fill="#f14902" fill-opacity="0.1804"><g transform="translate(857.756126, 184.571326)"><g><path d="M 12.890625 -100.421875 L 38.234375 -100.421875 L 38.234375 -83 L 38.59375 -83 C 41.664062 -89.570312 45.378906 -94.546875 49.734375 -97.921875 C 54.097656 -101.304688 59.566406 -103 66.140625 -103 C 67.859375 -103 69.550781 -102.875 71.21875 -102.625 L 71.21875 -75.8125 C 69.988281 -76.0625 67.46875 -76.1875 63.65625 -76.1875 C 55.425781 -76.1875 49.316406 -74.203125 45.328125 -70.234375 C 41.335938 -66.273438 39.34375 -60.273438 39.34375 -52.234375 L 39.34375 0 L 12.890625 0 Z M 12.890625 -100.421875 "/></g></g></g><g fill="#f6e7d8" fill-opacity="1"><g transform="translate(3.32377, 183.737458)"><g><path d="M 100.78125 -91.109375 C 97.28125 -106.710938 87.269531 -114.515625 70.75 -114.515625 C 60.488281 -114.515625 52.316406 -110.335938 46.234375 -101.984375 C 40.160156 -93.628906 37.125 -82.019531 37.125 -67.15625 C 37.125 -53.21875 40.070312 -42.023438 45.96875 -33.578125 C 51.863281 -25.128906 60.125 -20.90625 70.75 -20.90625 C 86.96875 -20.90625 96.976562 -29.414062 100.78125 -46.4375 L 129.0625 -46.4375 C 127.039062 -32.550781 120.960938 -20.738281 110.828125 -11 C 100.691406 -1.269531 87.148438 3.59375 70.203125 3.59375 C 51.285156 3.59375 36.238281 -2.65625 25.0625 -15.15625 C 13.882812 -27.65625 8.296875 -45.113281 8.296875 -67.53125 C 8.296875 -88.957031 13.851562 -106.226562 24.96875 -119.34375 C 36.082031 -132.457031 51.28125 -139.015625 70.5625 -139.015625 C 87.457031 -139.015625 101.109375 -134.453125 111.515625 -125.328125 C 121.921875 -116.210938 127.769531 -104.804688 129.0625 -91.109375 Z M 100.78125 -91.109375 "/></g></g></g><g fill="#f6e7d8" fill-opacity="1"><g transform="translate(131.441365, 183.737458)"><g><path d="M 39.34375 0 L 12.890625 0 L 12.890625 -135.421875 L 39.34375 -135.421875 Z M 39.34375 0 "/></g></g></g><g fill="#f6e7d8" fill-opacity="1"><g transform="translate(175.367525, 183.737458)"><g><path d="M 102.8125 0 L 77.5625 0 L 77.5625 -14.1875 L 77.203125 -14.1875 C 70.503906 -2.945312 60.304688 2.671875 46.609375 2.671875 C 35.984375 2.671875 27.628906 -0.457031 21.546875 -6.71875 C 15.472656 -12.988281 12.4375 -22.203125 12.4375 -34.359375 L 12.4375 -100.421875 L 38.875 -100.421875 L 38.875 -38.140625 C 38.875 -31.753906 40.347656 -27.070312 43.296875 -24.09375 C 46.242188 -21.113281 50.484375 -19.625 56.015625 -19.625 C 61.972656 -19.625 66.851562 -21.601562 70.65625 -25.5625 C 74.46875 -29.519531 76.375 -35.15625 76.375 -42.46875 L 76.375 -100.421875 L 102.8125 -100.421875 Z M 102.8125 0 "/></g></g></g><g fill="#f6e7d8" fill-opacity="1"><g transform="translate(282.759657, 183.737458)"><g><path d="M 83.28125 -49.46875 C 83.28125 -59.300781 81.296875 -66.875 77.328125 -72.1875 C 73.367188 -77.5 67.859375 -80.15625 60.796875 -80.15625 C 53.179688 -80.15625 47.5 -77.390625 43.75 -71.859375 C 40.007812 -66.328125 38.140625 -58.34375 38.140625 -47.90625 C 38.140625 -38.75 40.242188 -31.648438 44.453125 -26.609375 C 48.660156 -21.578125 54.359375 -19.0625 61.546875 -19.0625 C 67.929688 -19.0625 73.148438 -21.78125 77.203125 -27.21875 C 81.253906 -32.65625 83.28125 -40.070312 83.28125 -49.46875 Z M 39.34375 -87.328125 L 39.703125 -87.328125 C 46.210938 -97.773438 55.882812 -103 68.71875 -103 C 80.882812 -103 90.878906 -98.375 98.703125 -89.125 C 106.535156 -79.882812 110.453125 -67.28125 110.453125 -51.3125 C 110.453125 -35.28125 106.734375 -22.273438 99.296875 -12.296875 C 91.867188 -2.316406 81.492188 2.671875 68.171875 2.671875 C 54.960938 2.671875 45.289062 -2.425781 39.15625 -12.625 L 38.78125 -12.625 L 38.78125 0 L 12.890625 0 L 12.890625 -135.421875 L 39.34375 -135.421875 Z M 39.34375 -87.328125 "/></g></g></g><g fill="#f6e7d8" fill-opacity="1"><g transform="translate(391.809827, 183.737458)"><g><path d="M 35 -41.734375 C 35 -35.035156 37.472656 -29.707031 42.421875 -25.75 C 47.367188 -21.789062 54.445312 -19.8125 63.65625 -19.8125 C 72.875 -19.8125 79.890625 -21.300781 84.703125 -24.28125 C 89.523438 -27.257812 91.9375 -31.632812 91.9375 -37.40625 C 91.9375 -40.84375 90.691406 -43.816406 88.203125 -46.328125 C 85.722656 -48.847656 79.8125 -51.21875 70.46875 -53.4375 L 47.4375 -58.78125 C 32.882812 -62.21875 22.984375 -66.898438 17.734375 -72.828125 C 12.484375 -78.753906 9.859375 -86.9375 9.859375 -97.375 C 9.859375 -109.59375 14.203125 -119.585938 22.890625 -127.359375 C 31.578125 -135.128906 44.613281 -139.015625 62 -139.015625 C 79.257812 -139.015625 92.359375 -134.65625 101.296875 -125.9375 C 110.234375 -117.21875 114.726562 -106.988281 114.78125 -95.25 L 87.609375 -95.25 C 86.992188 -101.882812 84.414062 -106.9375 79.875 -110.40625 C 75.332031 -113.875 68.664062 -115.609375 59.875 -115.609375 C 52.8125 -115.609375 47.113281 -114.148438 42.78125 -111.234375 C 38.457031 -108.316406 36.296875 -104.375 36.296875 -99.40625 C 36.296875 -95.96875 37.25 -93.109375 39.15625 -90.828125 C 41.0625 -88.554688 44.128906 -86.898438 48.359375 -85.859375 L 84.578125 -76.921875 C 97.648438 -73.734375 106.675781 -69.144531 111.65625 -63.15625 C 116.632812 -57.164062 119.125 -49.6875 119.125 -40.71875 C 119.125 -25.976562 114.007812 -14.90625 103.78125 -7.5 C 93.550781 -0.101562 80.882812 3.59375 65.78125 3.59375 C 46.25 3.59375 31.707031 -0.566406 22.15625 -8.890625 C 12.601562 -17.210938 7.828125 -28.160156 7.828125 -41.734375 Z M 35 -41.734375 "/></g></g></g><g fill="#f6e7d8" fill-opacity="1"><g transform="translate(509.979201, 183.737458)"><g><path d="M 70.46875 -48.640625 C 67.21875 -46.367188 60.894531 -44.554688 51.5 -43.203125 C 43.632812 -42.097656 38.488281 -40.332031 36.0625 -37.90625 C 33.632812 -35.476562 32.421875 -32.269531 32.421875 -28.28125 C 32.421875 -24.289062 33.710938 -21.28125 36.296875 -19.25 C 38.878906 -17.226562 41.953125 -16.21875 45.515625 -16.21875 C 52.265625 -16.21875 58.109375 -18.101562 63.046875 -21.875 C 67.992188 -25.65625 70.46875 -30.367188 70.46875 -36.015625 Z M 96.265625 -19.625 C 96.265625 -15.019531 96.691406 -11.410156 97.546875 -8.796875 C 98.410156 -6.179688 99.921875 -4.570312 102.078125 -3.96875 L 102.078125 0 L 73.796875 0 C 72.566406 -3.375 71.707031 -7.335938 71.21875 -11.890625 C 62.613281 -2.179688 51.429688 2.671875 37.671875 2.671875 C 28.160156 2.671875 20.5 0.03125 14.6875 -5.25 C 8.882812 -10.53125 5.984375 -17.65625 5.984375 -26.625 C 5.984375 -35.21875 8.515625 -42.304688 13.578125 -47.890625 C 18.648438 -53.484375 26.222656 -57.019531 36.296875 -58.5 L 60.984375 -62.09375 C 64.359375 -62.582031 66.78125 -63.515625 68.25 -64.890625 C 69.726562 -66.273438 70.46875 -68.046875 70.46875 -70.203125 C 70.46875 -74.066406 69.054688 -76.992188 66.234375 -78.984375 C 63.410156 -80.984375 59.082031 -81.984375 53.25 -81.984375 C 47.164062 -81.984375 42.726562 -80.878906 39.9375 -78.671875 C 37.144531 -76.460938 35.410156 -72.867188 34.734375 -67.890625 L 9.21875 -67.890625 C 10.5 -80.117188 14.65625 -89.023438 21.6875 -94.609375 C 28.726562 -100.203125 39.953125 -103 55.359375 -103 C 67.765625 -103 77.679688 -100.507812 85.109375 -95.53125 C 92.546875 -90.5625 96.265625 -83.375 96.265625 -73.96875 Z M 96.265625 -19.625 "/></g></g></g><g fill="#f6e7d8" fill-opacity="1"><g transform="translate(609.449601, 183.737458)"><g><path d="M 66.046875 0 L 38.328125 0 L 2.296875 -100.421875 L 31.6875 -100.421875 L 52.421875 -26.4375 L 52.78125 -26.4375 L 74.15625 -100.421875 L 102.265625 -100.421875 Z M 66.046875 0 "/></g></g></g><g fill="#f6e7d8" fill-opacity="1"><g transform="translate(705.419701, 183.737458)"><g><path d="M 81.8125 -50.203125 C 81.8125 -59.785156 79.828125 -67.28125 75.859375 -72.6875 C 71.898438 -78.09375 65.929688 -80.796875 57.953125 -80.796875 C 50.515625 -80.796875 44.675781 -78.257812 40.4375 -73.1875 C 36.207031 -68.125 34.09375 -60.460938 34.09375 -50.203125 C 34.09375 -40.128906 36.148438 -32.515625 40.265625 -27.359375 C 44.378906 -22.203125 50.273438 -19.625 57.953125 -19.625 C 65.867188 -19.625 71.820312 -22.296875 75.8125 -27.640625 C 79.8125 -32.984375 81.8125 -40.503906 81.8125 -50.203125 Z M 108.984375 -50.203125 C 108.984375 -33.804688 104.269531 -20.894531 94.84375 -11.46875 C 85.414062 -2.039062 73.117188 2.671875 57.953125 2.671875 C 43.023438 2.671875 30.785156 -2.007812 21.234375 -11.375 C 11.679688 -20.738281 6.90625 -33.679688 6.90625 -50.203125 C 6.90625 -66.847656 11.679688 -79.804688 21.234375 -89.078125 C 30.785156 -98.359375 43.023438 -103 57.953125 -103 C 73.242188 -103 85.570312 -98.253906 94.9375 -88.765625 C 104.300781 -79.273438 108.984375 -66.421875 108.984375 -50.203125 Z M 108.984375 -50.203125 "/></g></g></g><g fill="#f6e7d8" fill-opacity="1"><g transform="translate(812.996059, 183.737458)"><g><path d="M 39.34375 -112.296875 L 12.890625 -112.296875 L 12.890625 -136.8125 L 39.34375 -136.8125 Z M 39.34375 -100.421875 L 39.34375 0 L 12.890625 0 L 12.890625 -100.421875 Z M 39.34375 -100.421875 "/></g></g></g><g fill="#f6e7d8" fill-opacity="1"><g transform="translate(856.922263, 183.737458)"><g><path d="M 12.890625 -100.421875 L 38.234375 -100.421875 L 38.234375 -83 L 38.59375 -83 C 41.664062 -89.570312 45.378906 -94.546875 49.734375 -97.921875 C 54.097656 -101.304688 59.566406 -103 66.140625 -103 C 67.859375 -103 69.550781 -102.875 71.21875 -102.625 L 71.21875 -75.8125 C 69.988281 -76.0625 67.46875 -76.1875 63.65625 -76.1875 C 55.425781 -76.1875 49.316406 -74.203125 45.328125 -70.234375 C 41.335938 -66.273438 39.34375 -60.273438 39.34375 -52.234375 L 39.34375 0 L 12.890625 0 Z M 12.890625 -100.421875 "/></g></g></g></g></g></g><g clip-path="url(#f70d9b12c7)"><g transform="matrix(1, 0, 0, 1, 0, 138)"><g clip-path="url(#3e8d99ad9f)"><g fill="#f14902" fill-opacity="0.1804"><g transform="translate(1.267081, 221.28186)"><g><path d="M 90.796875 -39.21875 C 90.796875 -24.914062 87.171875 -14.234375 79.921875 -7.171875 C 72.679688 -0.117188 62.304688 3.40625 48.796875 3.40625 C 32.960938 3.40625 21.46875 -0.148438 14.3125 -7.265625 C 7.164062 -14.390625 3.625 -25.898438 3.6875 -41.796875 L 3.6875 -51.109375 L 30.109375 -51.109375 L 30.109375 -48.34375 C 30.109375 -36.488281 31.363281 -28.703125 33.875 -24.984375 C 36.394531 -21.273438 40.664062 -19.421875 46.6875 -19.421875 C 52.332031 -19.421875 56.378906 -20.800781 58.828125 -23.5625 C 61.285156 -26.332031 62.515625 -31.25 62.515625 -38.3125 L 62.515625 -135.359375 L 90.796875 -135.359375 Z M 90.796875 -39.21875 "/></g></g></g><g fill="#f14902" fill-opacity="0.1804"><g transform="translate(96.565317, 221.28186)"><g><path d="M 102.765625 0 L 77.53125 0 L 77.53125 -14.1875 L 77.15625 -14.1875 C 70.46875 -2.945312 60.28125 2.671875 46.59375 2.671875 C 35.96875 2.671875 27.617188 -0.457031 21.546875 -6.71875 C 15.472656 -12.976562 12.4375 -22.1875 12.4375 -34.34375 L 12.4375 -100.359375 L 38.859375 -100.359375 L 38.859375 -38.125 C 38.859375 -31.738281 40.332031 -27.054688 43.28125 -24.078125 C 46.226562 -21.097656 50.460938 -19.609375 55.984375 -19.609375 C 61.941406 -19.609375 66.820312 -21.585938 70.625 -25.546875 C 74.425781 -29.503906 76.328125 -35.140625 76.328125 -42.453125 L 76.328125 -100.359375 L 102.765625 -100.359375 Z M 102.765625 0 "/></g></g></g><g fill="#f14902" fill-opacity="0.1804"><g transform="translate(203.824488, 221.28186)"><g><path d="M 68.96875 -69.609375 C 68.476562 -73.972656 66.878906 -77.347656 64.171875 -79.734375 C 61.472656 -82.128906 57.175781 -83.328125 51.28125 -83.328125 C 45.820312 -83.328125 41.800781 -82.4375 39.21875 -80.65625 C 36.644531 -78.875 35.359375 -76.632812 35.359375 -73.9375 C 35.359375 -71.300781 36.445312 -69.257812 38.625 -67.8125 C 40.800781 -66.375 49.195312 -63.9375 63.8125 -60.5 C 78.726562 -57 88.210938 -52.929688 92.265625 -48.296875 C 96.316406 -43.660156 98.34375 -37.875 98.34375 -30.9375 C 98.34375 -19.820312 94.425781 -11.316406 86.59375 -5.421875 C 78.769531 0.460938 67.09375 3.40625 51.5625 3.40625 C 37.875 3.40625 27.144531 0.582031 19.375 -5.0625 C 11.613281 -10.707031 7.148438 -19.578125 5.984375 -31.671875 L 33.0625 -31.671875 C 33.0625 -26.453125 34.734375 -22.566406 38.078125 -20.015625 C 41.421875 -17.472656 46.5 -16.203125 53.3125 -16.203125 C 59.082031 -16.203125 63.5 -17.078125 66.5625 -18.828125 C 69.632812 -20.578125 71.171875 -22.894531 71.171875 -25.78125 C 71.171875 -28.726562 70.050781 -31.015625 67.8125 -32.640625 C 65.570312 -34.265625 57.976562 -36.457031 45.03125 -39.21875 C 30.601562 -42.289062 21.039062 -46.296875 16.34375 -51.234375 C 11.644531 -56.179688 9.296875 -62.125 9.296875 -69.0625 C 9.296875 -79 12.851562 -87.128906 19.96875 -93.453125 C 27.09375 -99.773438 37.625 -102.9375 51.5625 -102.9375 C 65.1875 -102.9375 75.617188 -100.113281 82.859375 -94.46875 C 90.109375 -88.820312 94.132812 -80.535156 94.9375 -69.609375 Z M 68.96875 -69.609375 "/></g></g></g><g fill="#f14902" fill-opacity="0.1804"><g transform="translate(300.22681, 221.28186)"><g><path d="M 42.359375 -100.359375 L 58.75 -100.359375 L 58.75 -81.484375 L 42.359375 -81.484375 L 42.359375 -25.234375 C 42.359375 -22.585938 43.078125 -20.863281 44.515625 -20.0625 C 45.960938 -19.269531 48.191406 -18.875 51.203125 -18.875 C 54.203125 -18.875 56.71875 -19 58.75 -19.25 L 58.75 0.375 C 54.882812 0.988281 50.125 1.296875 44.46875 1.296875 C 34.039062 1.296875 26.675781 -0.28125 22.375 -3.4375 C 18.082031 -6.601562 15.9375 -12.300781 15.9375 -20.53125 L 15.9375 -81.484375 L 2.296875 -81.484375 L 2.296875 -100.359375 L 15.9375 -100.359375 L 15.9375 -127.4375 L 42.359375 -127.4375 Z M 42.359375 -100.359375 "/></g></g></g><g fill="#f14902" fill-opacity="0.1804"><g transform="translate(355.225891, 221.28186)"><g><path d="M 75.40625 -60.125 C 74.851562 -66.507812 72.765625 -71.632812 69.140625 -75.5 C 65.523438 -79.375 60.832031 -81.3125 55.0625 -81.3125 C 42.539062 -81.3125 35.390625 -74.25 33.609375 -60.125 Z M 101.46875 -29.375 C 98.40625 -19 92.910156 -11.0625 84.984375 -5.5625 C 77.066406 -0.0703125 67.859375 2.671875 57.359375 2.671875 C 40.847656 2.671875 28.234375 -1.882812 19.515625 -11 C 10.804688 -20.113281 6.453125 -32.742188 6.453125 -48.890625 C 6.453125 -65.097656 10.546875 -78.15625 18.734375 -88.0625 C 26.929688 -97.976562 39.164062 -102.9375 55.4375 -102.9375 C 70.039062 -102.9375 81.546875 -98.300781 89.953125 -89.03125 C 98.367188 -79.769531 102.578125 -65.992188 102.578125 -47.703125 L 102.578125 -43 L 32.875 -43 C 33.488281 -34.832031 35.878906 -28.707031 40.046875 -24.625 C 44.222656 -20.550781 49.90625 -18.515625 57.09375 -18.515625 C 61.382812 -18.515625 65.09375 -19.507812 68.21875 -21.5 C 71.351562 -23.5 73.382812 -26.125 74.3125 -29.375 Z M 101.46875 -29.375 "/></g></g></g><g fill="#f14902" fill-opacity="0.1804"><g transform="translate(454.940472, 221.28186)"><g><path d="M 40.328125 0 L 12.0625 0 L 12.0625 -27.53125 L 40.328125 -27.53125 Z M 40.328125 0 "/></g></g></g><g fill="#f6e7d8" fill-opacity="1"><g transform="translate(0.433214, 220.447997)"><g><path d="M 90.796875 -39.21875 C 90.796875 -24.914062 87.171875 -14.234375 79.921875 -7.171875 C 72.679688 -0.117188 62.304688 3.40625 48.796875 3.40625 C 32.960938 3.40625 21.46875 -0.148438 14.3125 -7.265625 C 7.164062 -14.390625 3.625 -25.898438 3.6875 -41.796875 L 3.6875 -51.109375 L 30.109375 -51.109375 L 30.109375 -48.34375 C 30.109375 -36.488281 31.363281 -28.703125 33.875 -24.984375 C 36.394531 -21.273438 40.664062 -19.421875 46.6875 -19.421875 C 52.332031 -19.421875 56.378906 -20.800781 58.828125 -23.5625 C 61.285156 -26.332031 62.515625 -31.25 62.515625 -38.3125 L 62.515625 -135.359375 L 90.796875 -135.359375 Z M 90.796875 -39.21875 "/></g></g></g><g fill="#f6e7d8" fill-opacity="1"><g transform="translate(95.73145, 220.447997)"><g><path d="M 102.765625 0 L 77.53125 0 L 77.53125 -14.1875 L 77.15625 -14.1875 C 70.46875 -2.945312 60.28125 2.671875 46.59375 2.671875 C 35.96875 2.671875 27.617188 -0.457031 21.546875 -6.71875 C 15.472656 -12.976562 12.4375 -22.1875 12.4375 -34.34375 L 12.4375 -100.359375 L 38.859375 -100.359375 L 38.859375 -38.125 C 38.859375 -31.738281 40.332031 -27.054688 43.28125 -24.078125 C 46.226562 -21.097656 50.460938 -19.609375 55.984375 -19.609375 C 61.941406 -19.609375 66.820312 -21.585938 70.625 -25.546875 C 74.425781 -29.503906 76.328125 -35.140625 76.328125 -42.453125 L 76.328125 -100.359375 L 102.765625 -100.359375 Z M 102.765625 0 "/></g></g></g><g fill="#f6e7d8" fill-opacity="1"><g transform="translate(202.990621, 220.447997)"><g><path d="M 68.96875 -69.609375 C 68.476562 -73.972656 66.878906 -77.347656 64.171875 -79.734375 C 61.472656 -82.128906 57.175781 -83.328125 51.28125 -83.328125 C 45.820312 -83.328125 41.800781 -82.4375 39.21875 -80.65625 C 36.644531 -78.875 35.359375 -76.632812 35.359375 -73.9375 C 35.359375 -71.300781 36.445312 -69.257812 38.625 -67.8125 C 40.800781 -66.375 49.195312 -63.9375 63.8125 -60.5 C 78.726562 -57 88.210938 -52.929688 92.265625 -48.296875 C 96.316406 -43.660156 98.34375 -37.875 98.34375 -30.9375 C 98.34375 -19.820312 94.425781 -11.316406 86.59375 -5.421875 C 78.769531 0.460938 67.09375 3.40625 51.5625 3.40625 C 37.875 3.40625 27.144531 0.582031 19.375 -5.0625 C 11.613281 -10.707031 7.148438 -19.578125 5.984375 -31.671875 L 33.0625 -31.671875 C 33.0625 -26.453125 34.734375 -22.566406 38.078125 -20.015625 C 41.421875 -17.472656 46.5 -16.203125 53.3125 -16.203125 C 59.082031 -16.203125 63.5 -17.078125 66.5625 -18.828125 C 69.632812 -20.578125 71.171875 -22.894531 71.171875 -25.78125 C 71.171875 -28.726562 70.050781 -31.015625 67.8125 -32.640625 C 65.570312 -34.265625 57.976562 -36.457031 45.03125 -39.21875 C 30.601562 -42.289062 21.039062 -46.296875 16.34375 -51.234375 C 11.644531 -56.179688 9.296875 -62.125 9.296875 -69.0625 C 9.296875 -79 12.851562 -87.128906 19.96875 -93.453125 C 27.09375 -99.773438 37.625 -102.9375 51.5625 -102.9375 C 65.1875 -102.9375 75.617188 -100.113281 82.859375 -94.46875 C 90.109375 -88.820312 94.132812 -80.535156 94.9375 -69.609375 Z M 68.96875 -69.609375 "/></g></g></g><g fill="#f6e7d8" fill-opacity="1"><g transform="translate(299.392943, 220.447997)"><g><path d="M 42.359375 -100.359375 L 58.75 -100.359375 L 58.75 -81.484375 L 42.359375 -81.484375 L 42.359375 -25.234375 C 42.359375 -22.585938 43.078125 -20.863281 44.515625 -20.0625 C 45.960938 -19.269531 48.191406 -18.875 51.203125 -18.875 C 54.203125 -18.875 56.71875 -19 58.75 -19.25 L 58.75 0.375 C 54.882812 0.988281 50.125 1.296875 44.46875 1.296875 C 34.039062 1.296875 26.675781 -0.28125 22.375 -3.4375 C 18.082031 -6.601562 15.9375 -12.300781 15.9375 -20.53125 L 15.9375 -81.484375 L 2.296875 -81.484375 L 2.296875 -100.359375 L 15.9375 -100.359375 L 15.9375 -127.4375 L 42.359375 -127.4375 Z M 42.359375 -100.359375 "/></g></g></g><g fill="#f6e7d8" fill-opacity="1"><g transform="translate(354.392024, 220.447997)"><g><path d="M 75.40625 -60.125 C 74.851562 -66.507812 72.765625 -71.632812 69.140625 -75.5 C 65.523438 -79.375 60.832031 -81.3125 55.0625 -81.3125 C 42.539062 -81.3125 35.390625 -74.25 33.609375 -60.125 Z M 101.46875 -29.375 C 98.40625 -19 92.910156 -11.0625 84.984375 -5.5625 C 77.066406 -0.0703125 67.859375 2.671875 57.359375 2.671875 C 40.847656 2.671875 28.234375 -1.882812 19.515625 -11 C 10.804688 -20.113281 6.453125 -32.742188 6.453125 -48.890625 C 6.453125 -65.097656 10.546875 -78.15625 18.734375 -88.0625 C 26.929688 -97.976562 39.164062 -102.9375 55.4375 -102.9375 C 70.039062 -102.9375 81.546875 -98.300781 89.953125 -89.03125 C 98.367188 -79.769531 102.578125 -65.992188 102.578125 -47.703125 L 102.578125 -43 L 32.875 -43 C 33.488281 -34.832031 35.878906 -28.707031 40.046875 -24.625 C 44.222656 -20.550781 49.90625 -18.515625 57.09375 -18.515625 C 61.382812 -18.515625 65.09375 -19.507812 68.21875 -21.5 C 71.351562 -23.5 73.382812 -26.125 74.3125 -29.375 Z M 101.46875 -29.375 "/></g></g></g><g fill="#f6e7d8" fill-opacity="1"><g transform="translate(454.106605, 220.447997)"><g><path d="M 40.328125 0 L 12.0625 0 L 12.0625 -27.53125 L 40.328125 -27.53125 Z M 40.328125 0 "/></g></g></g></g></g></g><g clip-path="url(#4622364b81)"><path fill="#f6e7d8" d="M 62.578125 103.714844 L 8.570312 103.714844 L 8.570312 127.195312 L 62.578125 127.195312 L 62.578125 181.203125 L 86.058594 181.203125 L 86.058594 127.195312 L 140.066406 127.195312 L 140.066406 103.714844 L 86.058594 103.714844 L 86.058594 49.707031 L 62.578125 49.707031 Z M 62.578125 103.714844 " fill-opacity="1" fill-rule="evenodd"/></g></g></g></svg>